<svg xmlns="http://www.w3.org/2000/svg" viewBox="0 0 32 32" fill="none">
  <path fill="#4a90d9" d="M24 14c.5 0 1 .1 1.4.3C25 11.2 22.6 9 19.6 9c-2.2 0-4.2 1.1-5.4 2.8C13.4 11.3 12 10 10.3 10 7.5 10 5 12.5 5 15.4c0 .4 0 .8.1 1.2C2.9 17.2 2 19 2 21.2 2 24 4.2 26 7 26h18c3.3 0 6-2.7 6-6 0-2.8-1.9-5.2-4.6-5.9-.2-.6-.4-1.3-.4-2 0-1.4.6-2.6 1.4-3.5.2-.2.4-.4.6-.6z"/>
  <path fill="#637a8a" d="M10 18h12v8H10z"/>
  <path fill="#4a90d9" d="M11 19h10v1H11zm0 2h10v1H11zm0 2h7v1h-7z"/>
  <circle fill="#4a90d9" cx="16" cy="15" r="1.5"/>
</svg>
